<svg width="40" height="40" viewBox="0 0 512 512" xmlns="http://www.w3.org/2000/svg">
  <defs>
    <linearGradient id="bg" x1="0%" y1="0%" x2="100%" y2="100%">
      <stop offset="0%" stop-color="#1a1408"/>
      <stop offset="100%" stop-color="#2a1f0e"/>
    </linearGradient>
    <linearGradient id="gold" x1="0%" y1="0%" x2="100%" y2="100%">
      <stop offset="0%" stop-color="#F59E0B"/>
      <stop offset="50%" stop-color="#FBBF24"/>
      <stop offset="100%" stop-color="#D97706"/>
    </linearGradient>
    <linearGradient id="glow" x1="0%" y1="0%" x2="100%" y2="100%">
      <stop offset="0%" stop-color="#FBBF24" stop-opacity="0.3"/>
      <stop offset="100%" stop-color="#F59E0B" stop-opacity="0"/>
    </linearGradient>
  </defs>

  <rect width="512" height="512" rx="128" fill="url(#bg)"/>
  <circle cx="256" cy="256" r="160" fill="url(#glow)"/>

  <g fill="none" stroke="url(#gold)" stroke-width="20" stroke-linecap="round" stroke-linejoin="round">
    <path d="M96 256 Q176 152 256 152 Q336 152 416 256 Q336 360 256 360 Q176 360 96 256Z"/>
    <circle cx="256" cy="256" r="52"/>
  </g>

  <circle cx="274" cy="238" r="16" fill="#FBBF24" opacity="0.8"/>

  <g fill="none" stroke="#FBBF24" stroke-width="12" stroke-linecap="round" opacity="0.9">
    <line x1="388" y1="100" x2="388" y2="148"/>
    <line x1="364" y1="124" x2="412" y2="124"/>
  </g>

  <g fill="none" stroke="#FBBF24" stroke-width="8" stroke-linecap="round" opacity="0.6">
    <line x1="120" y1="128" x2="120" y2="156"/>
    <line x1="106" y1="142" x2="134" y2="142"/>
  </g>
</svg>
